Coordinates
version=1
nRows=10
nColumns=28
inDegrees=yes

Units are S.I. units (second, meters, Newtons, ...)
Angles are in degrees.

endheader
time	pelvis_tilt	pelvis_list	pelvis_rotation	pelvis_tx	pelvis_ty	pelvis_tz	hip_flexion_r	hip_adduction_r	hip_rotation_r	knee_angle_r	ankle_angle_r	subtalar_angle_r	mtp_angle_r	hip_flexion_l	hip_adduction_l	hip_rotation_l	knee_angle_l	socket_flexion	socket_adduction	socket_rotation	socket_tx	socket_ty	socket_tz	foot_flex	lumbar_extension	lumbar_bending	lumbar_rotation
      0.27083333	     -1.56704858	      1.75980079	      1.84286019	     -0.41712549	      0.98175617	      0.24493061	     16.51199676	     -3.15282369	      2.98132028	    -62.82402598	    -11.99310111	    -16.29009967	     11.39478272	     12.27281304	      2.11657069	     -3.83925399	    -21.59337904	     -0.22114661	     -1.02118120	     10.13929549	      0.00845272	     -0.00985780	     -0.02000000	      4.22860793	     -7.09294445	     -4.74500063	     -5.16407872
      0.27500000	     -1.55987011	      1.61898449	      1.91160232	     -0.41099417	      0.98289198	      0.24410751	     17.07843565	     -3.06803882	      2.77451240	    -62.57001553	    -11.33060294	    -16.65261708	     11.18366793	     11.56259073	      2.05643338	     -3.94320055	    -21.35985724	     -0.42241482	     -1.19532255	     10.34268323	      0.00703394	     -0.00984922	     -0.01949413	      4.36536683	     -6.97080999	     -4.49150528	     -5.21691651
      0.27916667	     -0.94079986	      1.21814529	      1.71842624	     -0.40514489	      0.98486296	      0.24435143	     16.99495358	     -2.38811621	      2.93039644	    -62.22240511	    -10.35635324	    -17.28969511	      9.04538780	     10.19266039	      1.38042800	     -4.57900722	    -21.11744618	     -0.69266032	     -1.13506714	     11.02808433	      0.00596764	     -0.01018453	     -0.02000000	      4.45128898	     -7.66436436	     -4.02814699	     -5.43250132
      0.28333333	     -0.94488528	      1.11160161	      1.78647926	     -0.39965513	      0.98569817	      0.24337639	     17.72060461	     -2.39916519	      2.67874397	    -62.08903843	     -9.87226814	    -17.55361282	      8.98874724	      9.66295435	      1.39842151	     -4.62288627	    -20.97116657	     -0.81253124	     -1.28937571	     11.14298683	      0.00530522	     -0.01008235	     -0.01927874	      4.50604670	     -7.66201539	     -3.84098901	     -5.44167071
      0.28750000	     -0.96627341	      0.98750538	      1.84085486	     -0.39379008	      0.98664067	      0.24265743	     18.34134634	     -2.30669184	      2.49402600	    -61.78944905	     -8.99120695	    -18.01890207	      8.91082061	      9.05728524	      1.37537728	     -4.70218961	    -20.76609985	     -0.99338246	     -1.39942435	     11.27614313	      0.00438324	     -0.00997440	     -0.01838394	      4.58209140	     -7.55244710	     -3.64261722	     -5.54025408
      0.29166667	     -0.88333613	      0.86222372	      1.83938558	     -0.38811925	      0.98777747	      0.24240208	     18.80495727	     -2.07955724	      2.48265878	    -61.39247569	     -7.79805448	    -18.64507334	      8.67230231	      8.44398958	      1.16405418	     -4.85761852	    -20.62340995	     -1.14595301	     -1.37111993	     11.41408093	      0.00396998	     -0.00961665	     -0.01883625	      4.58614976	     -7.61735317	     -3.50314526	     -5.78857177
      0.29583333	     -0.52080597	      0.51865769	      1.77452785	     -0.38273014	      0.98909361	      0.24241873	     19.02821620	     -1.54585845	      2.46734073	    -61.02499335	     -6.87327558	    -19.25241802	      7.63852358	      7.49458705	      0.57005761	     -5.15643574	    -20.45669884	     -1.35085180	     -1.22100973	     11.74168861	      0.00318915	     -0.00983895	     -0.02000000	      4.62392986	     -8.06472909	     -3.06870454	     -6.12576044
      0.30000000	     -0.57268670	      0.40563286	      1.86204841	     -0.37696442	      0.98999807	      0.24143322	     19.60508840	     -1.48991321	      2.30914130	    -60.49405294	     -6.52999480	    -19.46842530	      7.51010964	      6.95000318	      0.62620040	     -5.15365444	    -20.26666034	     -1.50179328	     -1.42595442	     11.90440673	      0.00229496	     -0.00959237	     -0.01882378	      4.70047049	     -7.94526350	     -2.86321141	     -6.13283132
      0.30416667	     -0.58730570	      0.26329419	      1.88975626	     -0.37121774	      0.99088853	      0.24068155	     20.14529539	     -1.39162268	      2.11654076	    -59.94832887	     -5.89436417	    -19.84639460	      7.36733482	      6.39054301	      0.57414001	     -5.25074893	    -20.08303108	     -1.65800543	     -1.55337921	     11.98704639	      0.00167242	     -0.00934062	     -0.01818499	      4.72396374	     -7.87269228	     -2.65257390	     -6.22136440
      0.30833333	     -0.39415574	      0.03956137	      1.89812075	     -0.36583067	      0.99195815	      0.24063305	     20.46328401	     -0.99480244	      2.09581101	    -59.41903829	     -4.79250354	    -20.54280801	      6.82903926	      5.69454623	      0.18795729	     -5.43915622	    -19.95260954	     -1.82417669	     -1.41534135	     12.16898671	      0.00131841	     -0.00919792	     -0.01886529	      4.68642951	     -8.11599575	     -2.39839963	     -6.55358652
